<svg display="none" xmlns="http://www.w3.org/2000/svg">
  <symbol id="home">
    <path
      d="M3 13h1v7c0 1.103.897 2 2 2h12c1.103 0 2-.897 2-2v-7h1a1 1 0 0 0 .707-1.707l-9-9a.999.999 0 0 0-1.414 0l-9 9A1 1 0 0 0 3 13zm7 7v-5h4v5h-4zm2-15.586 6 6V15l.001 5H16v-5c0-1.103-.897-2-2-2h-4c-1.103 0-2 .897-2 2v5H6v-9.586l6-6z"/>
  </symbol>
  <symbol id="about">
    <circle cx="12" cy="4" r="2"/>
    <path d="M15 7H9a1 1 0 0 0-1 1v7h2v7h4v-7h2V8a1 1 0 0 0-1-1z"/>
  </symbol>
  <symbol id="skills">
    <path
      d="M20 6h-3V4c0-1.103-.897-2-2-2H9c-1.103 0-2 .897-2 2v2H4c-1.103 0-2 .897-2 2v11c0 1.103.897 2 2 2h16c1.103 0 2-.897 2-2V8c0-1.103-.897-2-2-2zm-5-2v2H9V4h6zM4 8h16v4h-3v-2h-2v2H9v-2H7v2H4V8zm0 11v-5h3v2h2v-2h6v2h2v-2h3.001v5H4z"/>
  </symbol>
  <symbol id="contact">
    <path
      d="M21 2H6a2 2 0 0 0-2 2v3H2v2h2v2H2v2h2v2H2v2h2v3a2 2 0 0 0 2 2h15a1 1 0 0 0 1-1V3a1 1 0 0 0-1-1zm-8 2.999c1.648 0 3 1.351 3 3A3.012 3.012 0 0 1 13 11c-1.647 0-3-1.353-3-3.001 0-1.649 1.353-3 3-3zM19 18H7v-.75c0-2.219 2.705-4.5 6-4.5s6 2.281 6 4.5V18z"/>
  </symbol>
</svg>
